<svg width="237" height="253" viewBox="0 0 237 253" fill="none" xmlns="http://www.w3.org/2000/svg">
<path d="M0.910156 10.7363C0.910156 5.21349 5.38731 0.736328 10.9102 0.736328H226.089C231.612 0.736328 236.089 5.21348 236.089 10.7363V242.958C236.089 248.48 231.612 252.958 226.089 252.958H10.9102C5.38731 252.958 0.910156 248.48 0.910156 242.958V10.7363Z" fill="url(#paint0_angular_255_6427)"/>
<path fill-rule="evenodd" clip-rule="evenodd" d="M88.7612 36.5259C87.3727 37.4642 85.6691 38.797 84.9752 39.4872C84.2813 40.1774 82.1005 41.7687 80.129 43.023C75.3767 46.0463 74.2778 47.7721 74.847 51.3185C75.0912 52.8393 75.7194 54.7349 76.2433 55.5315C78.4957 58.9544 84.7756 76.9427 87.3313 87.2937C92.6705 108.912 92.3049 129.552 86.2954 145.827C79.1811 165.092 60.9406 181.761 39.446 188.639C35.3679 189.945 34.869 190.282 35.016 191.639C35.1066 192.479 35.9194 198.876 36.8214 205.853C37.7234 212.83 38.4613 218.781 38.4613 219.076C38.4613 220.317 40.7137 219.462 42.7304 217.456C45.3373 214.863 46.9956 209.817 46.9956 204.476C46.9956 202.386 47.2168 200.676 47.4879 200.674C50.1421 200.66 61.8 198.276 67.0184 196.68C82.8869 191.828 99.5446 180.35 109.516 167.397L111.259 165.133L116.383 166.597C128.083 169.937 139.855 177.415 149.813 187.832C155.075 193.337 164.34 205.732 165.273 208.514C165.501 209.196 165.847 209.197 167.122 208.518C170.842 206.538 187.483 195.443 187.483 194.943C187.483 193.682 184.698 191.565 182.498 191.154C180.232 190.731 176.071 191.004 170.992 191.908L168.616 192.331L168.159 189.158C166.32 176.394 158.898 162.787 148.601 153.301C143.905 148.976 135.16 143.115 129.3 140.366L125.316 138.498L125.311 132.204C125.306 125.874 123.814 119.758 121.356 115.992C120.462 114.622 120.529 114.543 122.934 114.131C129.596 112.989 141.382 109.709 147.68 107.243C154.097 104.731 154.773 104.589 155.819 105.531C158.783 108.199 159.724 108.15 179.167 104.319C189.338 102.315 198.348 100.234 199.191 99.6931C200.033 99.1531 201.153 97.6871 201.678 96.4367C202.576 94.2995 202.407 93.036 198.892 75.5466C196.299 62.6431 194.771 56.4515 193.913 55.3663C191.457 52.2614 189.852 52.3221 169.773 56.2883C152.862 59.6283 151.018 60.1219 149.355 61.7537C148.348 62.7404 147.432 64.3565 147.318 65.3451C147.203 66.3337 148.212 72.7257 149.56 79.5494C150.908 86.373 152.016 92.0702 152.022 92.21C152.028 92.3497 153.584 92.2883 155.48 92.0735C160.101 91.5491 158.26 92.492 151.705 94.007C147.589 94.9583 143.824 95.2208 134.308 95.2208C122.65 95.2208 122.046 95.1568 119.248 93.621C117.362 92.5861 114.93 91.9253 112.355 91.7483C110.167 91.5981 108.008 91.1796 107.556 90.8191C106.24 89.7672 106.532 84.8326 107.988 83.5221C109.951 81.7551 112.135 76.0122 112.482 71.7038C112.763 68.2241 111.846 62.6953 110.36 58.9074C110.043 58.0997 110.783 57.5172 113.538 56.4052C118.144 54.5455 122.011 51.2375 123.747 47.6722C125.172 44.743 125.62 39.3912 124.439 39.3912C124.066 39.3912 119.861 41.0184 115.094 43.0074L106.427 46.6229L105.116 44.803C100.938 39.0059 95.6523 34.8203 92.5103 34.8203C91.8361 34.8203 90.149 35.5882 88.7612 36.5259ZM178.551 61.9725C179.68 64.9011 179.184 65.2811 172.331 66.7327C168.691 67.5032 165.442 67.9675 165.11 67.7631C164.778 67.5594 164.506 66.5485 164.506 65.5181C164.506 63.759 164.738 63.5977 168.281 62.8925C170.358 62.4792 172.942 61.8974 174.025 61.599C177.065 60.7625 178.117 60.8493 178.551 61.9725Z" fill="white"/>
<path d="M60.5656 177.973C67.3738 174.564 82.7116 159.226 86.1285 145.594C89.5454 131.962 58.8614 174.565 60.5656 177.973Z" fill="#FFC001"/>
<defs>
<radialGradient id="paint0_angular_255_6427" cx="0" cy="0" r="1" gradientUnits="userSpaceOnUse" gradientTransform="translate(109.979 116.622) rotate(128.66) scale(174.595 162.798)">
<stop stop-color="#FFC200"/>
<stop offset="1" stop-color="#FF6C00"/>
</radialGradient>
</defs>
</svg>
