<svg width="553" height="151" viewBox="0 0 553 151" fill="none" xmlns="http://www.w3.org/2000/svg">
<path d="M32.7998 118.478V111.953V106.27L496.511 106.358C497.692 106.358 498.828 106.168 499.921 105.786C501.013 105.404 502.017 104.875 502.932 104.199C503.876 103.523 504.703 102.715 505.411 101.775C506.12 100.864 506.695 99.8651 507.138 98.778C505.81 99.3363 504.452 99.8945 503.064 100.453C501.706 101.011 500.334 101.29 498.947 101.29C496.024 101.29 493.279 100.776 490.711 99.7476C488.142 98.7192 485.884 97.2649 483.936 95.3844C482.017 93.4746 480.497 91.1682 479.375 88.465C478.283 85.7325 477.737 82.6769 477.737 79.298V53.207H489.781V79.298C489.781 80.9727 490.017 82.4418 490.489 83.7052C490.991 84.9392 491.655 85.9823 492.482 86.8344C493.308 87.657 494.268 88.2741 495.36 88.6854C496.482 89.0968 497.677 89.3024 498.947 89.3024C500.186 89.3024 501.352 89.0233 502.445 88.465C503.566 87.8774 504.54 87.1135 505.367 86.1733C506.194 85.2331 506.843 84.1753 507.315 83C507.788 81.7954 508.024 80.5614 508.024 79.298V53.207H520.2V94.4589C520.171 97.779 519.521 100.893 518.252 103.802C516.983 106.711 515.241 109.253 513.027 111.427C510.843 113.601 508.289 115.32 505.367 116.583C502.445 117.847 499.315 118.478 495.98 118.478H32.7998Z" fill="#FF6C00"/>
<path d="M453.506 100.527H441.472V53.3164H444.381L448.348 58.9147C450.288 57.1514 452.492 55.7996 454.96 54.8592C457.429 53.8895 459.986 53.4046 462.63 53.4046H473.254V65.3945H462.63C461.367 65.3945 460.177 65.6296 459.06 66.0998C457.943 66.57 456.973 67.2165 456.151 68.0394C455.328 68.8622 454.681 69.832 454.211 70.9487C453.741 72.0654 453.506 73.2556 453.506 74.5192V100.527Z" fill="#131921"/>
<path d="M413.824 101.882C406.301 101.882 400.373 99.7157 396.04 95.3824C391.766 91.0491 389.63 85.0306 389.63 77.3269C389.63 72.3316 390.563 67.9983 392.428 64.327C394.294 60.5955 396.912 57.7367 400.283 55.7506C403.713 53.7645 407.715 52.7715 412.29 52.7715C419.03 52.7715 424.206 54.9381 427.817 59.2715C431.428 63.6048 433.234 69.864 433.234 78.0492C433.234 79.4334 433.204 80.4565 433.144 81.1186H402.449C403.051 84.3084 404.435 86.7459 406.602 88.431C408.769 90.056 411.688 90.8685 415.359 90.8685C417.586 90.8685 419.903 90.5977 422.31 90.056C424.718 89.4542 426.824 88.6718 428.63 87.7088L430.706 97.9102C428.299 99.1741 425.62 100.137 422.671 100.799C419.783 101.521 416.833 101.882 413.824 101.882ZM421.046 71.5492C420.866 68.9612 419.963 66.9149 418.338 65.4103C416.713 63.8455 414.546 63.0631 411.838 63.0631C409.25 63.0631 407.114 63.8154 405.428 65.32C403.803 66.8247 402.78 68.901 402.359 71.5492H421.046Z" fill="#131921"/>
<path d="M355.955 100.527L337.97 53.3164H351.679L361.994 82.7623L372.265 53.3164H386.018L368.033 100.527H355.955Z" fill="#131921"/>
<path d="M335.414 40.4895C335.414 41.6062 335.194 42.6495 334.753 43.6192C334.342 44.589 333.769 45.4412 333.034 46.1759C332.299 46.8812 331.433 47.4543 330.433 47.8951C329.464 48.3065 328.42 48.5122 327.304 48.5122C326.187 48.5122 325.129 48.3065 324.13 47.8951C323.16 47.4543 322.308 46.8812 321.573 46.1759C320.868 45.4412 320.295 44.589 319.854 43.6192C319.443 42.6495 319.237 41.6062 319.237 40.4895C319.237 39.4022 319.443 38.3736 319.854 37.4038C320.295 36.4047 320.868 35.5525 321.573 34.8472C322.308 34.1125 323.16 33.5394 324.13 33.128C325.129 32.6872 326.187 32.4668 327.304 32.4668C328.42 32.4668 329.464 32.6872 330.433 33.128C331.433 33.5394 332.299 34.1125 333.034 34.8472C333.769 35.5525 334.342 36.4047 334.753 37.4038C335.194 38.3736 335.414 39.4022 335.414 40.4895ZM333.343 100.528H321.22V53.317H333.343V100.528Z" fill="#131921"/>
<path d="M312.006 100.528H299.883V34.5391H312.006V100.528Z" fill="#131921"/>
<path d="M272.236 101.882C264.713 101.882 258.785 99.7157 254.451 95.3824C250.178 91.0491 248.042 85.0306 248.042 77.3269C248.042 72.3316 248.974 67.9983 250.84 64.327C252.706 60.5955 255.324 57.7367 258.694 55.7506C262.125 53.7645 266.127 52.7715 270.701 52.7715C277.442 52.7715 282.618 54.9381 286.229 59.2715C289.84 63.6048 291.646 69.864 291.646 78.0492C291.646 79.4334 291.615 80.4565 291.555 81.1186H260.861C261.463 84.3084 262.847 86.7459 265.014 88.431C267.18 90.056 270.099 90.8685 273.771 90.8685C275.997 90.8685 278.315 90.5977 280.722 90.056C283.129 89.4542 285.236 88.6718 287.041 87.7088L289.118 97.9102C286.71 99.1741 284.032 100.137 281.083 100.799C278.194 101.521 275.245 101.882 272.236 101.882ZM279.458 71.5492C279.278 68.9612 278.375 66.9149 276.75 65.4103C275.125 63.8455 272.958 63.0631 270.25 63.0631C267.662 63.0631 265.525 63.8154 263.84 65.32C262.215 66.8247 261.192 68.901 260.771 71.5492H279.458Z" fill="#131921"/>
<path d="M239.806 100.528H236.897L232.225 94.0481C231.078 95.0767 229.859 96.0464 228.566 96.9574C227.302 97.8391 225.965 98.6178 224.554 99.2937C223.144 99.9402 221.689 100.455 220.19 100.837C218.721 101.219 217.222 101.41 215.694 101.41C212.373 101.41 209.244 100.792 206.305 99.5582C203.396 98.2946 200.839 96.5607 198.635 94.3567C196.46 92.1232 194.741 89.4931 193.478 86.4662C192.214 83.41 191.582 80.0892 191.582 76.504C191.582 72.9481 192.214 69.6421 193.478 66.5858C194.741 63.5295 196.46 60.8847 198.635 58.6512C200.839 56.4178 203.396 54.6693 206.305 53.4056C209.244 52.142 212.373 51.5102 215.694 51.5102C216.752 51.5102 217.839 51.5983 218.956 51.7746C220.102 51.951 221.204 52.2448 222.262 52.6563C223.35 53.0383 224.363 53.5526 225.304 54.1991C226.244 54.8456 227.038 55.6391 227.684 56.5795V34.5391H239.806V100.528ZM227.684 76.504C227.684 74.8583 227.361 73.2714 226.714 71.7432C226.097 70.1857 225.245 68.8192 224.158 67.6437C223.07 66.4389 221.792 65.4838 220.323 64.7785C218.883 64.0438 217.34 63.6765 215.694 63.6765C214.049 63.6765 212.491 63.9703 211.022 64.5581C209.582 65.1458 208.318 65.998 207.231 67.1148C206.173 68.2021 205.335 69.5392 204.718 71.1261C204.101 72.713 203.792 74.5056 203.792 76.504C203.792 78.2378 204.101 79.8835 204.718 81.441C205.335 82.9985 206.173 84.365 207.231 85.5405C208.318 86.716 209.582 87.6417 211.022 88.3176C212.491 88.9935 214.049 89.3315 215.694 89.3315C217.34 89.3315 218.883 88.9788 220.323 88.2735C221.792 87.5388 223.07 86.5838 224.158 85.4083C225.245 84.2034 226.097 82.8369 226.714 81.3088C227.361 79.7512 227.684 78.1496 227.684 76.504Z" fill="#131921"/>
<path d="M155.431 100.529H143.397V53.3183H146.306L150.274 57.9027C152.213 56.1394 154.402 54.7876 156.842 53.8472C159.31 52.8775 161.882 52.3926 164.556 52.3926C167.436 52.3926 170.154 52.9509 172.711 54.0676C175.267 55.155 177.501 56.6684 179.411 58.608C181.321 60.5181 182.82 62.7663 183.907 65.3523C185.024 67.909 185.582 70.642 185.582 73.5513V100.529H173.548V73.5513C173.548 72.3171 173.313 71.1563 172.843 70.069C172.373 68.9522 171.726 67.9825 170.903 67.1596C170.081 66.3368 169.125 65.6903 168.038 65.2201C166.951 64.7499 165.79 64.5148 164.556 64.5148C163.292 64.5148 162.102 64.7499 160.985 65.2201C159.868 65.6903 158.899 66.3368 158.076 67.1596C157.253 67.9825 156.607 68.9522 156.136 70.069C155.666 71.1563 155.431 72.3171 155.431 73.5513V100.529Z" fill="#131921"/>
<path d="M136.74 76.5035C136.74 80.03 136.109 83.3214 134.845 86.3776C133.581 89.4045 131.862 92.0347 129.688 94.2681C127.513 96.4721 124.956 98.2207 122.017 99.5137C119.108 100.777 115.978 101.409 112.628 101.409C109.308 101.409 106.178 100.777 103.239 99.5137C100.33 98.2207 97.7731 96.4721 95.569 94.2681C93.3944 92.0347 91.6752 89.4045 90.4116 86.3776C89.1479 83.3214 88.5161 80.03 88.5161 76.5035C88.5161 72.9183 89.1479 69.5976 90.4116 66.5413C91.6752 63.485 93.3944 60.8549 95.569 58.6508C97.7731 56.4174 100.33 54.6689 103.239 53.4052C106.178 52.1416 109.308 51.5098 112.628 51.5098C115.978 51.5098 119.108 52.1122 122.017 53.3171C124.956 54.4926 127.513 56.1823 129.688 58.3864C131.862 60.561 133.581 63.1912 134.845 66.2768C136.109 69.3331 136.74 72.742 136.74 76.5035ZM124.618 76.5035C124.618 74.564 124.295 72.8155 123.648 71.2579C123.031 69.671 122.179 68.3192 121.092 67.2025C120.004 66.0564 118.726 65.1895 117.257 64.6017C115.817 63.9846 114.274 63.6761 112.628 63.6761C110.983 63.6761 109.425 63.9846 107.956 64.6017C106.516 65.1895 105.252 66.0564 104.165 67.2025C103.107 68.3192 102.269 69.671 101.652 71.2579C101.035 72.8155 100.726 74.564 100.726 76.5035C100.726 78.3256 101.035 80.0153 101.652 81.5728C102.269 83.1304 103.107 84.4822 104.165 85.6283C105.252 86.7744 106.516 87.6854 107.956 88.3613C109.425 89.0078 110.983 89.331 112.628 89.331C114.274 89.331 115.817 89.0225 117.257 88.4054C118.726 87.7882 120.004 86.9213 121.092 85.8046C122.179 84.6879 123.031 83.3361 123.648 81.7492C124.295 80.1623 124.618 78.4137 124.618 76.5035Z" fill="#131921"/>
<path d="M86.7106 94.0472C83.7719 96.5745 80.4805 98.514 76.8365 99.8658C73.1925 101.218 69.4163 101.894 65.5078 101.894C62.5103 101.894 59.6156 101.497 56.8238 100.703C54.0614 99.9393 51.4607 98.852 49.0215 97.4414C46.6118 96.0014 44.4077 94.2823 42.4094 92.2839C40.4111 90.2856 38.6919 88.0816 37.252 85.6718C35.8414 83.2327 34.7394 80.6319 33.9459 77.8695C33.1818 75.0777 32.7998 72.1831 32.7998 69.1856C32.7998 66.1881 33.1818 63.2935 33.9459 60.5017C34.7394 57.7099 35.8414 55.1091 37.252 52.6994C38.6919 50.2603 40.4111 48.0415 42.4094 46.0432C44.4077 44.0449 46.6118 42.3404 49.0215 40.9298C51.4607 39.4899 54.0614 38.3878 56.8238 37.6238C59.6156 36.8303 62.5103 36.4336 65.5078 36.4336C69.4163 36.4336 73.1925 37.1095 76.8365 38.4613C80.4805 39.7837 83.7719 41.7233 86.7106 44.28L80.0103 55.3002C78.1589 53.3018 75.9696 51.7737 73.4423 50.7158C70.915 49.6284 68.2702 49.0848 65.5078 49.0848C62.716 49.0848 60.1005 49.6137 57.6614 50.6717C55.2222 51.7296 53.0917 53.1696 51.2697 54.9916C49.4477 56.7842 48.0077 58.9148 46.9497 61.3833C45.8918 63.8224 45.3628 66.4232 45.3628 69.1856C45.3628 71.948 45.8918 74.5488 46.9497 76.9879C48.0077 79.3977 49.4477 81.5135 51.2697 83.3355C53.0917 85.1575 55.2222 86.5975 57.6614 87.6555C60.1005 88.7134 62.716 89.2424 65.5078 89.2424C68.2702 89.2424 70.915 88.7134 73.4423 87.6555C75.9696 86.5681 78.1589 85.0253 80.0103 83.027L86.7106 94.0472Z" fill="#131921"/>
</svg>
